<?xml version="1.0" encoding="utf-8" ?>
<svg baseProfile="full" height="200mm" version="1.1" viewBox="0,0,200,200" width="200mm" xmlns="http://www.w3.org/2000/svg" xmlns:ev="http://www.w3.org/2001/xml-events" xmlns:xlink="http://www.w3.org/1999/xlink"><defs /><rect fill="#1a1a1a" height="200" width="200" x="0" y="0" /><text alignment-baseline="middle" fill="#e1ed5e" style="dominant-baseline: central; font-size:9.0px; font-family:Arial;" text-anchor="middle" x="100.0" y="100.0">2023</text><line stroke="#e1ed5e" stroke-width="0.3" x1="100.0" x2="100.0" y1="15.0" y2="10.0" /><path d="M 100.0 14.0 a86.0,86.0 0 0,1 42.46469731375804,11.215312516191453" fill="none" id="id49" stroke="none" /><text fill="#e1ed5e" style="font-size:6.75px; font-family:Arial;" text-anchor="middle"><textPath startOffset="22.20632615414155" xlink:href="#id49">January</textPath></text><path d="M 100.36148047927253 79.00311137660856 l 0.603847175296984 -35.07495594444363 a56.080153447722765,56.080153447722765 0 0,0 0.9650416071519863,0.02492417756266491 l -1.207515417643838 35.0593649747386" fill="#fffd17" stroke="none" /><path d="M 100.72285384407766 79.0124445844662 l 0.8357475924108608 -24.26534638064045 a45.27973453336509,45.27973453336509 0 0,0 0.7787233920810559,0.03353346735117886 l -1.2533118168812483 24.247365186765077" fill="#ff2003" stroke="none" /><path d="M 101.44485096284872 79.0497635885617 l 1.5721204574902903 -22.795635050650347 a43.84978205793872,43.84978205793872 0 0,0 0.7525662689525858,0.058413626483990864 l -1.9642769158052173 22.76519616197789" fill="#ff0000" stroke="none" /><path d="M 101.80526077348638 79.07773832637324 l 2.056448429665572 -23.83342772174108 a44.921982716976665,44.921982716976665 0 0,0 0.7698234676726773,0.07310401422148823 l -2.4663970244284936 23.794498163004416" fill="#ff1802" stroke="none" /><path d="M 102.52436894288641 79.15227682838746 l 5.996850378967499 -49.52551684435772 a70.88726323590504,70.88726323590504 0 0,0 1.210097133640914,0.1571053379668698 l -6.84846224111626 49.41495318322671" fill="#34ff5b" stroke="none" /><path d="M 103.2404852339499 79.25152402106235 l 6.176148035959723 -39.545206941206594 a61.02459489595046,61.02459489595046 0 0,0 1.036461462218676,0.1710250220105805 l -6.855938704317274 39.433035656256386" fill="#a8ff21" stroke="none" /><path d="M 103.95276090670814 79.375362276772 l 8.33214210507377 -43.475286371093965 a65.26652366187989,65.26652366187989 0 0,0 1.1015546820513766,0.22096150633109213 l -9.079263196592272 43.325420908685665" fill="#62ff29" stroke="none" /><path d="M 105.01212808612495 79.60689891045804 l 15.036384258374856 -61.17930326862588 a84.0,84.0 0 0,0 1.4011644452598997,0.3571880153245286 l -16.08725759231978 60.91141225713248" fill="#4dd2ff" stroke="none" /><path d="M 105.71112130821622 79.79150937346287 l 13.271340017741165 -46.95991135125716 a69.79919814899041,69.79919814899041 0 0,0 1.153381169179073,0.3367035910774889 l -14.077711404643665 46.72450943126097" fill="#32ff47" stroke="none" /><path d="M 106.40334571778207 80.00007090966166 l 14.87568575939605 -46.46206428178401 a69.78534046347251,69.78534046347251 0 0,0 1.1408812446081622,0.3761306089696038 l -15.67324982624663 46.19911994855517" fill="#32ff47" stroke="none" /><path d="M 106.74666289553966 80.11325718540242 l 8.476427751317194 -24.985469303410227 a47.384152511213145,47.384152511213145 0 0,0 0.7701459035374986,0.26868878353301257 l -8.905255658917966 24.835859666705005" fill="#ff4e07" stroke="none" /><path d="M 108.43124777332544 80.76684994638697 l 17.20434843651794 -39.24612630897478 a63.85146479859375,63.85146479859375 0 0,0 1.0028264215554832,0.4499389836633925 l -17.877356976540206 38.944166994794855" fill="#79ff26" stroke="none" /><path d="M 109.08828744355905 81.06846463323043 l 25.231210344962932 -52.558367454651034 a79.30090878339621,79.30090878339621 0 0,0 1.2254963548760425,0.6013457390654393 l -26.132177966849408 52.116266555450764" fill="#44ffe7" stroke="none" /><path d="M 109.73455568895987 81.39251694778311 l 13.476004084389974 -25.759215481840357 a50.07128941623297,50.07128941623297 0 0,0 0.7602608884324015,0.4061050370986686 l -13.917410019350687 25.523431718239934" fill="#ff860c" stroke="none" /><line stroke="#e1ed5e" stroke-width="0.3" x1="143.23703022742887" x2="145.7803849466894" y1="26.81831364943548" y2="22.513508569990506" /><path d="M 143.74570117128098 25.957352633546492 a86.0,86.0 0 0,1 28.547481713284135,27.462654790039103" fill="none" id="id50" stroke="none" /><text fill="#e1ed5e" style="font-size:6.75px; font-family:Arial;" text-anchor="middle"><textPath startOffset="19.985693538727396" xlink:href="#id50">February</textPath></text><line stroke="#e1ed5e" stroke-width="0.3" x1="172.23445277983987" x2="176.4835382374775" y1="55.19839476539836" y2="52.563006222186495" /><path d="M 173.08426987136738 54.67131705675599 a86.0,86.0 0 0,1 12.851231095245387,41.99856678651699" fill="none" id="id51" stroke="none" /><text fill="#e1ed5e" style="font-size:6.75px; font-family:Arial;" text-anchor="middle"><textPath startOffset="22.20632615414155" xlink:href="#id51">March</textPath></text><line stroke="#e1ed5e" stroke-width="0.3" x1="184.98032266829074" x2="189.97916517819016" y1="98.17113171792111" y2="98.06355123074" /><path d="M 185.9800911702706 98.14961562048488 a86.0,86.0 0 0,1 -9.607161424134198,41.387399972396054" fill="none" id="id52" stroke="none" /><text fill="#e1ed5e" style="font-size:6.75px; font-family:Arial;" text-anchor="middle"><textPath startOffset="21.466115282336823" xlink:href="#id52">April</textPath></text><line stroke="#e1ed5e" stroke-width="0.3" x1="174.80103733775053" x2="179.2010983576182" y1="140.37084112569926" y2="142.7455964860345" /><path d="M 175.68104954172406 140.8457921977663 a86.0,86.0 0 0,1 -30.038265399797805,32.042727171017184" fill="none" id="id53" stroke="none" /><text fill="#e1ed5e" style="font-size:6.75px; font-family:Arial;" text-anchor="middle"><textPath startOffset="22.206326154141568" xlink:href="#id53">May</textPath></text><line stroke="#e1ed5e" stroke-width="0.3" x1="143.8653032363475" x2="146.44561519142675" y1="172.8068346515853" y2="177.08958963109032" /><path d="M 144.38136562736335 173.6633856474863 a86.0,86.0 0 0,1 -40.68145358897372,12.25698825130547" fill="none" id="id54" stroke="none" /><text fill="#e1ed5e" style="font-size:6.75px; font-family:Arial;" text-anchor="middle"><textPath startOffset="21.466115282336833" xlink:href="#id54">June</textPath></text><line stroke="#e1ed5e" stroke-width="0.3" x1="102.19456741930631" x2="102.32365962044197" y1="184.97166512339345" y2="189.96999836594603" /><path d="M 102.22038585953345 185.97133177190398 a86.0,86.0 0 0,1 -42.740103519485714,-10.115201625700543" fill="none" id="id55" stroke="none" /><text fill="#e1ed5e" style="font-size:6.75px; font-family:Arial;" text-anchor="middle"><textPath startOffset="22.20632615414155" xlink:href="#id55">July</textPath></text><line stroke="#e1ed5e" stroke-width="0.3" x1="58.666819895761336" x2="56.23545636021788" y1="174.27360380694188" y2="178.64263932499728" /><path d="M 58.180547188652646 175.14741091055294 a86.0,86.0 0 0,1 -31.652253787137756,-30.449443065178592" fill="none" id="id56" stroke="none" /><text fill="#e1ed5e" style="font-size:6.75px; font-family:Arial;" text-anchor="middle"><textPath startOffset="22.20632615414155" xlink:href="#id56">August</textPath></text><line stroke="#e1ed5e" stroke-width="0.3" x1="26.63291911575756" x2="22.317208475507996" y1="142.92168965132927" y2="145.44649492493687" /><path d="M 25.769776987707644 143.4266507060508 a86.0,86.0 0 0,1 -11.730757126820373,-40.83630448921669" fill="none" id="id57" stroke="none" /><text fill="#e1ed5e" style="font-size:6.75px; font-family:Arial;" text-anchor="middle"><textPath startOffset="21.46611528233685" xlink:href="#id57">September</textPath></text><line stroke="#e1ed5e" stroke-width="0.3" x1="15.007084014347285" x2="10.007500721073583" y1="101.09737516637583" y2="101.16192664675087" /><path d="M 14.007167355692545 101.11028546245083 a86.0,86.0 0 0,1 10.666146001902534,-42.60595125391555" fill="none" id="id58" stroke="none" /><text fill="#e1ed5e" style="font-size:6.75px; font-family:Arial;" text-anchor="middle"><textPath startOffset="22.20632615414155" xlink:href="#id58">October</textPath></text><line stroke="#e1ed5e" stroke-width="0.3" x1="26.266209847984243" x2="21.928928074336255" y1="57.711370442889674" y2="55.22380399835377" /><path d="M 25.398753493254645 57.213857153982495 a86.0,86.0 0 0,1 29.58750427330803,-30.492523968695096" fill="none" id="id59" stroke="none" /><text fill="#e1ed5e" style="font-size:6.75px; font-family:Arial;" text-anchor="middle"><textPath startOffset="21.46611528233685" xlink:href="#id59">November</textPath></text><line stroke="#e1ed5e" stroke-width="0.3" x1="56.762969772571076" x2="54.21961505331055" y1="26.818313649435495" y2="22.513508569990535" /><path d="M 56.25429882871897 25.957352633546506 a86.0,86.0 0 0,1 42.265352541879196,-11.944610805530505" fill="none" id="id60" stroke="none" /><text fill="#e1ed5e" style="font-size:6.75px; font-family:Arial;" text-anchor="middle"><textPath startOffset="22.20632615414155" xlink:href="#id60">December</textPath></text></svg>