<?xml version="1.0" encoding="utf-8" ?>
<svg baseProfile="full" height="200mm" version="1.1" viewBox="0,0,200,200" width="200mm" xmlns="http://www.w3.org/2000/svg" xmlns:ev="http://www.w3.org/2001/xml-events" xmlns:xlink="http://www.w3.org/1999/xlink"><defs /><rect fill="#1a1a1a" height="200" width="200" x="0" y="0" /><text alignment-baseline="middle" fill="#e1ed5e" style="dominant-baseline: central; font-size:9.0px; font-family:Arial;" text-anchor="middle" x="100.0" y="100.0">2024</text><line stroke="#e1ed5e" stroke-width="0.3" x1="100.0" x2="100.0" y1="15.0" y2="10.0" /><path d="M 100.0 14.0 a86.0,86.0 0 0,1 42.35913384403234,11.155469271406648" fill="none" id="id61" stroke="none" /><text fill="#e1ed5e" style="font-size:6.75px; font-family:Arial;" text-anchor="middle"><textPath startOffset="22.145653131862478" xlink:href="#id61">January</textPath></text><path d="M 100.0 79.0 l 0.0 -31.636339029214426 a52.636339029214426,52.636339029214426 0 0,0 0.9035727528560684,0.007756085354936426 l -0.5430798280072137 31.631677342053923" fill="#beff1e" stroke="none" /><path d="M 100.72087961077811 79.0123766808444 l 1.0255995847409605 -29.85921288242823 a50.8768212577307,50.8768212577307 0 0,0 0.872596209502398,0.03747303578643715 l -1.5380215548441947 29.83720727821596" fill="#d7ff1c" stroke="none" /><path d="M 101.80034050326958 79.07731436759882 l 4.586323055458053 -53.30002592493684 a74.49698237067176,74.49698237067176 0 0,0 1.2731904523491946,0.12057245956859101 l -5.5006130711922605 53.21344170986306" fill="#3fffbd" stroke="none" /><path d="M 102.87502721639298 79.19773525538626 l 4.09070370206601 -29.59829420637983 a50.87963983560569,50.87963983560569 0 0,0 0.8641661983373254,0.12700267195818463 l -4.598195006011018 29.52371046112276" fill="#d7ff1c" stroke="none" /><path d="M 103.58742460773223 79.30868818359171 l 4.629408200606941 -26.701196283745197 a48.09954433696137,48.09954433696137 0 0,0 0.8123446527781577,0.1480362563603352 l -5.0870875869361525 26.617791853453497" fill="#feff18" stroke="none" /><path d="M 104.29559338865022 79.4440306129975 l 7.290639395900442 -34.88834875055427 a56.64197386988209,56.64197386988209 0 0,0 0.9500681901833057,0.20706294011518336 l -7.888470002702881 34.75805435230537" fill="#89ff24" stroke="none" /><path d="M 105.3480935250658 79.69241777938227 l 8.0107278997106 -30.418038635247644 a52.45518774222497,52.45518774222497 0 0,0 0.8688042816289697,0.23679647035900878 l -8.531713582274262 30.276041670744494" fill="#c1ff1e" stroke="none" /><path d="M 106.04205211174951 79.88797359093562 l 8.596052591978935 -28.613463364109798 a50.87678707380232,50.87678707380232 0 0,0 0.8342808665837806,0.25846234506990107 l -9.085974091434347 28.461684431233248" fill="#d7ff1c" stroke="none" /><path d="M 106.72888874123014 80.10723608172694 l 10.106489415777185 -29.878040152262486 a52.54105913965835,52.54105913965835 0 0,0 0.8519013032235716,0.29633549519083435 l -10.617896491045775 29.70014622450306" fill="#c0ff1e" stroke="none" /><path d="M 107.74402155503746 80.48000691201159 l 8.26236515611357 -20.826557569801707 a43.40562827017409,43.40562827017409 0 0,0 0.6902436152405128,0.280716069298653 l -8.618663232544522 20.68165424392376" fill="#ffba11" stroke="none" /><path d="M 108.07796709384702 80.6158196554323 l 6.056181265019081 -14.532630360668456 a36.74403622692068,36.74403622692068 0 0,0 0.5801444575959025,0.2476291714258376 l -6.304760797785414 14.426526539583216" fill="#ff4f07" stroke="none" /><path d="M 109.06512990194946 81.05736502329252 l 27.195389705848374 -56.82790493012246 a84.0,84.0 0 0,0 1.2953590029517317,0.6336249996111154 l -28.166908958062173 56.352686180414125" fill="#4dd2ff" stroke="none" /><path d="M 110.02825361518725 81.54914285379988 l 5.290510197938571 -9.733942881624733 a32.07876988556152,32.07876988556152 0 0,0 0.4815723163441114,0.267120046018054 l -5.456826702438782 9.641689920173533" fill="#ff0000" stroke="none" /><line stroke="#e1ed5e" stroke-width="0.3" x1="143.13028292997686" x2="145.6673583964461" y1="26.7553504044142" y2="22.446841604673864" /><path d="M 143.63769802327073 25.89364864446614 a86.0,86.0 0 0,1 29.32050498858742,28.57503671076993" fill="none" id="id62" stroke="none" /><text fill="#e1ed5e" style="font-size:6.75px; font-family:Arial;" text-anchor="middle"><textPath startOffset="20.669276256404974" xlink:href="#id62">February</textPath></text><path d="M 110.96478420261332 82.08984904055464 l 8.430530903848537 -13.770638652442377 a37.14634138797038,37.14634138797038 0 0,0 0.5409849371745086,0.337614611869852 l -8.665679969812757 13.62388824373098" fill="#ff5608" stroke="none" /><path d="M 111.27062007382361 82.28071324371311 l 17.293660341485424 -27.188506457448923 a53.22243894234897,53.22243894234897 0 0,0 0.766692974589749,0.4969611232073448 l -17.75783894833218 26.887631492537682" fill="#b6ff1f" stroke="none" /><line stroke="#e1ed5e" stroke-width="0.3" x1="172.87174338648825" x2="177.1583165268699" y1="56.24261187166439" y2="53.66864786411523" /><path d="M 173.72905801456457 55.72781907015455 a86.0,86.0 0 0,1 12.242430191666344,42.057860355516425" fill="none" id="id63" stroke="none" /><text fill="#e1ed5e" style="font-size:6.75px; font-family:Arial;" text-anchor="middle"><textPath startOffset="22.145653131862474" xlink:href="#id63">March</textPath></text><line stroke="#e1ed5e" stroke-width="0.3" x1="184.99686870605535" x2="189.99668451229388" y1="99.2704041080226" y2="99.22748670261217" /><path d="M 185.99683186730306 99.26182062694052 a86.0,86.0 0 0,1 -10.086455211305974,41.156179273409016" fill="none" id="id64" stroke="none" /><text fill="#e1ed5e" style="font-size:6.75px; font-family:Arial;" text-anchor="middle"><textPath startOffset="21.40746469413373" xlink:href="#id64">April</textPath></text><line stroke="#e1ed5e" stroke-width="0.3" x1="174.33088141563837" x2="178.70328620479359" y1="141.23008692659167" y2="143.65538615756765" /><path d="M 175.20536237346943 141.71514677278685 a86.0,86.0 0 0,1 -30.301960400862466,31.631185727798858" fill="none" id="id65" stroke="none" /><text fill="#e1ed5e" style="font-size:6.75px; font-family:Arial;" text-anchor="middle"><textPath startOffset="22.145653131862474" xlink:href="#id65">May</textPath></text><line stroke="#e1ed5e" stroke-width="0.3" x1="143.1302829299769" x2="145.66735839644613" y1="173.24464959558577" y2="177.55315839532614" /><path d="M 143.63769802327073 174.10635135553383 a86.0,86.0 0 0,1 -40.68552437913181,11.842963189579606" fill="none" id="id66" stroke="none" /><text fill="#e1ed5e" style="font-size:6.75px; font-family:Arial;" text-anchor="middle"><textPath startOffset="21.407464694133747" xlink:href="#id66">June</textPath></text><line stroke="#e1ed5e" stroke-width="0.3" x1="101.45913802915013" x2="101.54496967792366" y1="184.9874750549273" y2="189.98673829345242" /><path d="M 101.47630435890484 185.9873277026323 a86.0,86.0 0 0,1 -42.54439059252881,-10.42667462771756" fill="none" id="id67" stroke="none" /><text fill="#e1ed5e" style="font-size:6.75px; font-family:Arial;" text-anchor="middle"><textPath startOffset="22.145653131862474" xlink:href="#id67">July</textPath></text><line stroke="#e1ed5e" stroke-width="0.3" x1="58.13341422392154" x2="55.67067388415222" y1="173.97424548756322" y2="178.32567169271397" /><path d="M 57.64086615596768 174.84453072859336 a86.0,86.0 0 0,1 -31.369924170532247,-30.572349798747897" fill="none" id="id68" stroke="none" /><text fill="#e1ed5e" style="font-size:6.75px; font-family:Arial;" text-anchor="middle"><textPath startOffset="22.145653131862474" xlink:href="#id68">August</textPath></text><line stroke="#e1ed5e" stroke-width="0.3" x1="26.387840678322732" x2="22.057713659400548" y1="142.50000000000003" y2="145.00000000000006" /><path d="M 25.521815274538298 143.00000000000003 a86.0,86.0 0 0,1 -11.493303480769221,-40.785679425670985" fill="none" id="id69" stroke="none" /><text fill="#e1ed5e" style="font-size:6.75px; font-family:Arial;" text-anchor="middle"><textPath startOffset="21.40746469413373" xlink:href="#id69">September</textPath></text><line stroke="#e1ed5e" stroke-width="0.3" x1="15.003131293944662" x2="10.003315487706104" y1="100.72959589197737" y2="100.7725132973878" /><path d="M 14.003168132696942 100.73817937305945 a86.0,86.0 0 0,1 10.791469493833604,-42.45332614584628" fill="none" id="id70" stroke="none" /><text fill="#e1ed5e" style="font-size:6.75px; font-family:Arial;" text-anchor="middle"><textPath startOffset="22.145653131862435" xlink:href="#id70">October</textPath></text><line stroke="#e1ed5e" stroke-width="0.3" x1="26.387840678322718" x2="22.05771365940052" y1="57.49999999999999" y2="54.99999999999999" /><path d="M 25.521815274538284 56.99999999999999 a86.0,86.0 0 0,1 29.574782752854787,-30.34633250058573" fill="none" id="id71" stroke="none" /><text fill="#e1ed5e" style="font-size:6.75px; font-family:Arial;" text-anchor="middle"><textPath startOffset="21.40746469413373" xlink:href="#id71">November</textPath></text><line stroke="#e1ed5e" stroke-width="0.3" x1="56.869717070023135" x2="54.33264160355391" y1="26.7553504044142" y2="22.446841604673864" /><path d="M 56.362301976729285 25.89364864446614 a86.0,86.0 0 0,1 42.16139366436587,-11.88097634709845" fill="none" id="id72" stroke="none" /><text fill="#e1ed5e" style="font-size:6.75px; font-family:Arial;" text-anchor="middle"><textPath startOffset="22.145653131862474" xlink:href="#id72">December</textPath></text></svg>