<?xml version="1.0" encoding="utf-8" ?>
<svg baseProfile="full" height="200mm" version="1.1" viewBox="0,0,200,200" width="200mm" xmlns="http://www.w3.org/2000/svg" xmlns:ev="http://www.w3.org/2001/xml-events" xmlns:xlink="http://www.w3.org/1999/xlink"><defs /><rect fill="#1a1a1a" height="200" width="200" x="0" y="0" /><text alignment-baseline="middle" fill="#e1ed5e" style="dominant-baseline: central; font-size:9.0px; font-family:Arial;" text-anchor="middle" x="100.0" y="100.0">2023</text><line stroke="#e1ed5e" stroke-width="0.3" x1="100.0" x2="100.0" y1="15.0" y2="10.0" /><path d="M 100.0 14.0 a86.0,86.0 0 0,1 42.46469731375804,11.215312516191453" fill="none" id="id49" stroke="none" /><text fill="#e1ed5e" style="font-size:6.75px; font-family:Arial;" text-anchor="middle"><textPath startOffset="22.20632615414155" xlink:href="#id49">January</textPath></text><path d="M 100.36148047927253 79.00311137660856 l 0.38740446018814784 -22.5027042100467 a43.506038722543494,43.506038722543494 0 0,0 0.7486630286908532,0.019335757260002313 l -0.7746941240738688 22.49270166064434" fill="#ff8d0c" stroke="none" /><path d="M 100.72285384407766 79.0124445844662 l 0.5361825941012909 -15.567686329321802 a36.57691719893157,36.57691719893157 0 0,0 0.6290518556824033,0.027088296151412748 l -0.8040752821730257 15.556150306646193" fill="#ff1101" stroke="none" /><path d="M 101.44485096284872 79.0497635885617 l 1.008610294293799 -14.624777680047767 a35.65951625793221,35.65951625793221 0 0,0 0.6120018810453268,0.04750312465723049 l -1.260202364701467 14.605249293202073" fill="#ff0000" stroke="none" /><path d="M 101.80526077348638 79.07773832637324 l 1.3193359617978404 -15.290584403964937 a36.34739778577687,36.34739778577687 0 0,0 0.6228816742265139,0.05915012036281627 l -1.5823427631145983 15.265608739086943" fill="#ff0d01" stroke="none" /><path d="M 102.52436894288641 79.15227682838746 l 3.847341974814068 -31.773612436277734 a53.0056946108337,53.0056946108337 0 0,0 0.9048457534854722,0.117474948049423 l -4.393702456807386 31.702679165064175" fill="#d9ff1c" stroke="none" /><path d="M 103.2404852339499 79.25152402106235 l 3.9623722587363353 -25.370640411710244 a46.67819675945155,46.67819675945155 0 0,0 0.7927975949618747,0.1308183961206298 l -4.398499059837086 25.298675752649988" fill="#ffc212" stroke="none" /><path d="M 103.95276090670814 79.375362276772 l 5.345572764896172 -27.89202390461679 a49.39965044997058,49.39965044997058 0 0,0 0.8337569276215243,0.16724379610293638 l -5.824896101984822 27.795876152436644" fill="#ffed16" stroke="none" /><path d="M 105.01212808612495 79.60689891045804 l 9.646749318538 -39.25022079603555 a61.418307794268856,61.418307794268856 0 0,0 1.0244898710637917,0.2611652793526895 l -10.320948078286815 39.07835252051399" fill="#62ff29" stroke="none" /><path d="M 105.71112130821622 79.79150937346287 l 8.514366756816825 -30.127621444233206 a52.30763509364142,52.30763509364142 0 0,0 0.8643457650117586,0.25232623072840693 l -9.03170273955201 29.976596884586094" fill="#e4ff1b" stroke="none" /><path d="M 106.40334571778207 80.00007090966166 l 9.543651518636375 -29.808222458702403 a52.29874455080684,52.29874455080684 0 0,0 0.8550027323546548,0.2818809581725424 l -10.055337073233447 29.639527776270622" fill="#e4ff1b" stroke="none" /><path d="M 106.74666289553966 80.11325718540242 l 5.438140727755882 -16.029688709356996 a37.927028525224515,37.927028525224515 0 0,0 0.6164370175268897,0.21506277135700408 l -5.7132597493460455 15.933705084827784" fill="#ff2a04" stroke="none" /><path d="M 108.43124777332544 80.76684994638697 l 11.037629373127468 -25.17876210934755 a48.49180466134666,48.49180466134666 0 0,0 0.7615935373870508,0.34170482030680993 l -11.4694050289813 24.98503695852421" fill="#ffdf14" stroke="none" /><path d="M 109.08828744355905 81.06846463323043 l 16.18734644039131 -33.719369411847126 a58.40355676020478,58.40355676020478 0 0,0 0.9025539179749327,0.4428792878016696 l -16.765371625376673 33.435734963910626" fill="#8bff24" stroke="none" /><path d="M 109.73455568895987 81.39251694778311 l 8.645671125709496 -16.526093648951097 a39.65098926351706,39.65098926351706 0 0,0 0.6020435398440556,0.3215908088965476 l -8.928859712081863 16.374824113552794" fill="#ff4906" stroke="none" /><path d="M 110.05341064243156 81.56283822128135 l 10.835153009190668 -19.87081559013107 a43.63293734691919,43.63293734691919 0 0,0 0.6563139919486153,0.3652380259433223 l -11.175591090211318 19.681362166627565" fill="#ff8f0d" stroke="none" /><line stroke="#e1ed5e" stroke-width="0.3" x1="143.23703022742887" x2="145.7803849466894" y1="26.81831364943548" y2="22.513508569990506" /><path d="M 143.74570117128098 25.957352633546492 a86.0,86.0 0 0,1 28.547481713284135,27.462654790039103" fill="none" id="id50" stroke="none" /><text fill="#e1ed5e" style="font-size:6.75px; font-family:Arial;" text-anchor="middle"><textPath startOffset="19.985693538727396" xlink:href="#id50">February</textPath></text><path d="M 110.99172775467656 82.1063720568725 l 8.666975598901109 -14.109122807642224 a37.55849668397096,37.55849668397096 0 0,0 0.5479620976027887,0.3431338152487268 l -8.908556848876161 13.957844651070554" fill="#ff2303" stroke="none" /><path d="M 111.2981086023043 82.29822771554956 l 14.75185732759265 -23.11307391154723 a48.41954558803435,48.41954558803435 0 0,0 0.6987009004626517,0.4544545012908738 l -15.14752525383958 22.85572048609683" fill="#ffde14" stroke="none" /><path d="M 111.90073688211348 82.69761687909136 l 25.18276018434915 -36.61300716651021 a65.43741333918265,65.43741333918265 0 0,0 0.922570495044067,0.6463195893746623 l -25.809261818976868 36.17410273437161" fill="#2fff30" stroke="none" /><path d="M 112.48926042617603 83.11751280151076 l 12.142258172257412 -16.4134233060149 a41.41653492011279,41.41653492011279 0 0,0 0.5694849407706101,0.4289242507274427 l -12.422989266786406 16.201982465781608" fill="#ff6809" stroke="none" /><path d="M 113.06298171725822 83.55741782278167 l 19.415772289514987 -24.43894038240411 a52.21272209553342,52.21272209553342 0 0,0 0.6988961301310069,0.5651253989312953 l -19.833571818210483 24.101108886208685" fill="#e5ff1a" stroke="none" /><path d="M 113.6212207817346 84.01681056812373 l 24.006286613184354 -28.16906301151508 a58.01078096853755,58.01078096853755 0 0,0 0.7544335251358036,0.6542373186863619 l -24.487613936966923 27.75166069940905" fill="#90ff24" stroke="none" /><path d="M 113.89432698308785 84.25364557470407 l 16.775954349703447 -19.012084812351898 a46.35531528605779,46.35531528605779 0 0,0 0.5937652608796757,0.5330883138283188 l -17.100730598179116 18.72049748975428" fill="#ffbc11" stroke="none" /><path d="M 114.42810811169701 84.74124197986012 l 14.277045765066267 -15.098998765818498 a41.78012992038272,41.78012992038272 0 0,0 0.5183059013480886,0.4986098664436338 l -14.534834910026774 14.851005812612563" fill="#ff6f0a" stroke="none" /><path d="M 115.19652480421416 85.50635884689758 l 17.840254435788975 -17.01509056864532 a45.653356473163875,45.653356473163875 0 0,0 0.5374762658046384,0.5733422059115019 l -18.130498023564076 16.705478945855763" fill="#ffb110" stroke="none" /><path d="M 115.68641384162765 86.03803664274999 l 31.028826494695252 -27.617742519819387 a62.539472499406415,62.539472499406415 0 0,0 0.708804919162292,0.8102865519220017 l -31.499623277435393 27.07954041169444" fill="#53ff2b" stroke="none" /><path d="M 116.15771136456269 86.58626213691792 l 13.70935697808014 -11.38117377060591 a38.81790069422216,38.81790069422216 0 0,0 0.42237851633609425,0.5177861184301104 l -13.903233986492642 11.143503482567699" fill="#ff3a05" stroke="none" /><path d="M 116.38621287248628 86.86637796730983 l 15.817083064140835 -12.677461976152813 a41.27062304949533,41.27062304949533 0 0,0 0.43952411601734864,0.5581509929692249 l -16.03296126075215 12.40331858923055" fill="#ff6609" stroke="none" /><path d="M 116.82858285166822 87.43820079747576 l 15.002057269128791 -11.198377944277338 a39.72072089661873,39.72072089661873 0 0,0 0.40427633873898544,0.5514324717050886 l -15.192596220381404 10.938483028900755" fill="#ff4a06" stroke="none" /><path d="M 117.2510076193507 88.02491185347247 l 39.17667967896141 -27.19517623524733 a68.69056343905059,68.69056343905059 0 0,0 0.6658913407438329,0.9771133758658448 l -39.638995485373975 26.516784836111082" fill="#35ff62" stroke="none" /><path d="M 117.65298651832404 88.62581576622439 l 12.518656401283256 -8.066029174141605 a35.892198787670466,35.892198787670466 0 0,0 0.33016106265868095,0.5222355127753346 l -12.655645060187892 7.849346013652063" fill="#ff0400" stroke="none" /><line stroke="#e1ed5e" stroke-width="0.3" x1="172.23445277983987" x2="176.4835382374775" y1="55.19839476539836" y2="52.563006222186495" /><path d="M 173.08426987136738 54.67131705675599 a86.0,86.0 0 0,1 12.851231095245387,41.99856678651699" fill="none" id="id51" stroke="none" /><text fill="#e1ed5e" style="font-size:6.75px; font-family:Arial;" text-anchor="middle"><textPath startOffset="22.20632615414155" xlink:href="#id51">March</textPath></text><path d="M 118.03404312379186 89.2402003453031 l 17.53956988420597 -10.464778013901663 a41.42420354880906,41.42420354880906 0 0,0 0.36007560002890615,0.6154859206700599 l -17.717105158705202 10.161312680877707" fill="#ff6909" stroke="none" /><path d="M 118.3937258080291 89.86733742301442 l 40.79292349537379 -22.4718435852176 a67.57302181969627,67.57302181969627 0 0,0 0.5524638360845621,1.0236315835493375 l -41.173695430676815 21.7663310183358" fill="#33ff51" stroke="none" /><path d="M 118.73160827565052 90.50648371742162 l 20.155319267007137 -10.215078642800261 a43.59612193349963,43.59612193349963 0 0,0 0.33348954584185814,0.6722945746092609 l -20.328168825802404 9.86662447969205" fill="#ff8e0d" stroke="none" /><path d="M 119.196687751892 91.48605970444005 l 15.226074188090367 -6.75292989335575 a37.65639208609744,37.65639208609744 0 0,0 0.2576939703132742,0.594793212701943 l -15.340058868246322 6.4898375360672045" fill="#ff2503" stroke="none" /><path d="M 119.47837535516314 92.15188598940014 l 29.001375172886867 -11.685065857438904 a52.26692383352131,52.26692383352131 0 0,0 0.3290487837444475,0.8373932635630709 l -29.198217506513014 11.184123588980048" fill="#e4ff1a" stroke="none" /><path d="M 119.85752413597 93.16781622104841 l 16.052655068439297 -5.5230797564048135 a37.976222923309486,37.976222923309486 0 0,0 0.2073550710815813,0.6199652698823181 l -16.145347433292645 5.245941383600181" fill="#ff2b04" stroke="none" /><path d="M 120.08093135843002 93.85539295169968 l 15.94912690251003 -4.880307383664166 a37.67909017636802,37.67909017636802 0 0,0 0.18443753677747723,0.6218316852026984 l -16.03077033639921 4.605046311714938" fill="#ff2503" stroke="none" /><path d="M 120.37134235888165 94.90015583598534 l 61.11402707664495 -15.299532492043943 a84.0,84.0 0 0,0 0.33906879895672226,1.4056590733623755 l -61.36832867586249 14.245288187022162" fill="#4dd2ff" stroke="none" /><path d="M 120.67395015179393 96.31383870115 l 16.397256932689963 -2.9236277280728897 a37.65585884933604,37.65585884933604 0 0,0 0.10828415327469715,0.6390992022417231 l -16.445152947484885 2.6409427375153287" fill="#ff2503" stroke="none" /><line stroke="#e1ed5e" stroke-width="0.3" x1="184.98032266829074" x2="189.97916517819016" y1="98.17113171792111" y2="98.06355123074" /><path d="M 185.9800911702706 98.14961562048488 a86.0,86.0 0 0,1 -9.607161424134198,41.387399972396054" fill="none" id="id52" stroke="none" /><text fill="#e1ed5e" style="font-size:6.75px; font-family:Arial;" text-anchor="middle"><textPath startOffset="21.466115282336823" xlink:href="#id52">April</textPath></text><line stroke="#e1ed5e" stroke-width="0.3" x1="174.80103733775053" x2="179.2010983576182" y1="140.37084112569926" y2="142.7455964860345" /><path d="M 175.68104954172406 140.8457921977663 a86.0,86.0 0 0,1 -30.038265399797805,32.042727171017184" fill="none" id="id53" stroke="none" /><text fill="#e1ed5e" style="font-size:6.75px; font-family:Arial;" text-anchor="middle"><textPath startOffset="22.206326154141568" xlink:href="#id53">May</textPath></text><line stroke="#e1ed5e" stroke-width="0.3" x1="143.8653032363475" x2="146.44561519142675" y1="172.8068346515853" y2="177.08958963109032" /><path d="M 144.38136562736335 173.6633856474863 a86.0,86.0 0 0,1 -40.68145358897372,12.25698825130547" fill="none" id="id54" stroke="none" /><text fill="#e1ed5e" style="font-size:6.75px; font-family:Arial;" text-anchor="middle"><textPath startOffset="21.466115282336833" xlink:href="#id54">June</textPath></text><line stroke="#e1ed5e" stroke-width="0.3" x1="102.19456741930631" x2="102.32365962044197" y1="184.97166512339345" y2="189.96999836594603" /><path d="M 102.22038585953345 185.97133177190398 a86.0,86.0 0 0,1 -42.740103519485714,-10.115201625700543" fill="none" id="id55" stroke="none" /><text fill="#e1ed5e" style="font-size:6.75px; font-family:Arial;" text-anchor="middle"><textPath startOffset="22.20632615414155" xlink:href="#id55">July</textPath></text><line stroke="#e1ed5e" stroke-width="0.3" x1="58.666819895761336" x2="56.23545636021788" y1="174.27360380694188" y2="178.64263932499728" /><path d="M 58.180547188652646 175.14741091055294 a86.0,86.0 0 0,1 -31.652253787137756,-30.449443065178592" fill="none" id="id56" stroke="none" /><text fill="#e1ed5e" style="font-size:6.75px; font-family:Arial;" text-anchor="middle"><textPath startOffset="22.20632615414155" xlink:href="#id56">August</textPath></text><line stroke="#e1ed5e" stroke-width="0.3" x1="26.63291911575756" x2="22.317208475507996" y1="142.92168965132927" y2="145.44649492493687" /><path d="M 25.769776987707644 143.4266507060508 a86.0,86.0 0 0,1 -11.730757126820373,-40.83630448921669" fill="none" id="id57" stroke="none" /><text fill="#e1ed5e" style="font-size:6.75px; font-family:Arial;" text-anchor="middle"><textPath startOffset="21.46611528233685" xlink:href="#id57">September</textPath></text><line stroke="#e1ed5e" stroke-width="0.3" x1="15.007084014347285" x2="10.007500721073583" y1="101.09737516637583" y2="101.16192664675087" /><path d="M 14.007167355692545 101.11028546245083 a86.0,86.0 0 0,1 10.666146001902534,-42.60595125391555" fill="none" id="id58" stroke="none" /><text fill="#e1ed5e" style="font-size:6.75px; font-family:Arial;" text-anchor="middle"><textPath startOffset="22.20632615414155" xlink:href="#id58">October</textPath></text><line stroke="#e1ed5e" stroke-width="0.3" x1="26.266209847984243" x2="21.928928074336255" y1="57.711370442889674" y2="55.22380399835377" /><path d="M 25.398753493254645 57.213857153982495 a86.0,86.0 0 0,1 29.58750427330803,-30.492523968695096" fill="none" id="id59" stroke="none" /><text fill="#e1ed5e" style="font-size:6.75px; font-family:Arial;" text-anchor="middle"><textPath startOffset="21.46611528233685" xlink:href="#id59">November</textPath></text><line stroke="#e1ed5e" stroke-width="0.3" x1="56.762969772571076" x2="54.21961505331055" y1="26.818313649435495" y2="22.513508569990535" /><path d="M 56.25429882871897 25.957352633546506 a86.0,86.0 0 0,1 42.265352541879196,-11.944610805530505" fill="none" id="id60" stroke="none" /><text fill="#e1ed5e" style="font-size:6.75px; font-family:Arial;" text-anchor="middle"><textPath startOffset="22.20632615414155" xlink:href="#id60">December</textPath></text></svg>